<svg xmlns="http://www.w3.org/2000/svg" width="950" height="950" id="empty" style=""><g id="icon"><path fill="black" d="M267.26162011239245 239.7639335324429L178.86162011239244 392.8639335324429C184.46162011239244 399.9639335324429 185.16162011239246 409.7639335324429 180.56162011239246 417.7639335324429C174.46162011239244 428.4639335324429 160.76162011239245 432.0639335324429 150.06162011239246 425.9639335324429C139.36162011239244 419.7639335324429 135.76162011239245 406.1639335324429 141.86162011239244 395.4639335324429C146.36162011239244 387.6639335324429 155.36162011239244 383.2639335324429 164.26162011239245 384.5639335324429L257.46162011239244 223.0639335324429L236.46162011239244 186.3639335324429L107.66162011239246 409.4639335324429L159.66162011239246 499.4639335324429L288.46162011239244 276.3639335324429L267.26162011239245 239.7639335324429Z " transform="matrix(1.78026444117054,0,0,1.7802647175152293,-41.666122349095886,-68.81934570366428)"></path><path fill="black" d="M152.66162011239246 401.5639335324429C149.86162011239244 406.3639335324429 151.56162011239246 412.4639335324429 156.36162011239244 415.2639335324429C161.16162011239246 418.0639335324429 167.26162011239245 416.3639335324429 170.06162011239246 411.5639335324429C172.86162011239244 406.7639335324429 171.16162011239246 400.6639335324429 166.36162011239244 397.8639335324429C161.56162011239246 395.1639335324429 155.46162011239244 396.7639335324429 152.66162011239246 401.5639335324429Z " transform="matrix(1.78026444117054,0,0,1.7802647175152293,-41.666122349095886,-68.81934570366428)"></path><path fill="black" d="M243.26162011239245 370.7639335324429L222.06162011239246 407.3639335324429L398.8616201123925 407.3639335324429C402.26162011239245 398.9639335324429 410.3616201123925 393.4639335324429 419.56162011239246 393.4639335324429C431.8616201123925 393.4639335324429 441.8616201123925 403.4639335324429 441.8616201123925 415.7639335324429C441.8616201123925 428.0639335324429 431.8616201123925 438.0639335324429 419.56162011239246 438.0639335324429C410.46162011239244 438.0639335324429 402.26162011239245 432.4639335324429 398.8616201123925 424.1639335324429L212.46162011239244 424.1639335324429L191.26162011239245 460.7639335324429L448.8616201123925 460.7639335324429L500.8616201123925 370.7639335324429L243.26162011239245 370.7639335324429Z " transform="matrix(1.78026444117054,0,0,1.7802647175152293,-41.666122349095886,-68.81934570366428)"></path><path fill="black" d="M429.56162011239246 415.7639335324429C429.56162011239246 410.2639335324429 425.06162011239246 405.7639335324429 419.56162011239246 405.7639335324429C414.06162011239246 405.7639335324429 409.56162011239246 410.2639335324429 409.56162011239246 415.7639335324429C409.56162011239246 421.2639335324429 414.06162011239246 425.7639335324429 419.56162011239246 425.7639335324429C425.06162011239246 425.7639335324429 429.56162011239246 421.2639335324429 429.56162011239246 415.7639335324429Z " transform="matrix(1.78026444117054,0,0,1.7802647175152293,-41.666122349095886,-68.81934570366428)"></path><path fill="black" d="M389.56162011239246 362.6639335324429L301.1616201123925 209.5639335324429C292.1616201123925 210.8639335324429 283.3616201123924 206.5639335324429 278.76162011239245 198.6639335324429C272.56162011239246 188.0639335324429 276.26162011239245 174.3639335324429 286.96162011239244 168.1639335324429C297.6616201123925 161.9639335324429 311.26162011239245 165.6639335324429 317.46162011239244 176.3639335324429C321.96162011239244 184.1639335324429 321.26162011239245 194.1639335324429 315.76162011239245 201.2639335324429L408.96162011239244 362.7639335324429L451.26162011239245 362.7639335324429L322.3616201123925 139.5639335324429L218.46162011239244 139.5639335324429L347.26162011239245 362.6639335324429L389.56162011239246 362.6639335324429Z " transform="matrix(1.78026444117054,0,0,1.7802647175152293,-41.666122349095886,-68.81934570366428)"></path><path fill="black" d="M293.06162011239246 178.7639335324429C288.26162011239245 181.5639335324429 286.6616201123925 187.6639335324429 289.3616201123924 192.4639335324429C292.1616201123925 197.2639335324429 298.26162011239245 198.8639335324429 303.06162011239246 196.1639335324429C307.8616201123924 193.3639335324429 309.46162011239244 187.2639335324429 306.76162011239245 182.4639335324429C303.96162011239244 177.6639335324429 297.8616201123924 175.9639335324429 293.06162011239246 178.7639335324429Z " transform="matrix(1.78026444117054,0,0,1.7802647175152293,-41.666122349095886,-68.81934570366428)"></path><g transform="matrix(3.56052888234108,0,0,3.5605294350304586,-41.666122349095886,-68.81934570366428)"></g></g></svg>